<svg xmlns="http://www.w3.org/2000/svg" viewBox="0 0 64 64">
  <defs>
    <linearGradient id="g" x1="0" y1="0" x2="1" y2="1">
      <stop offset="0" stop-color="#1d4ed8"/>
      <stop offset="1" stop-color="#22d3ee"/>
    </linearGradient>
  </defs>
  <rect x="2" y="2" width="60" height="60" rx="14" fill="url(#g)"/>
  <path d="M22 16h20v6c0 6-4 10-10 10s-10-4-10-10v-6z" fill="#fff"/>
  <path d="M18 18h4v2c0 3-2 5-5 5h-2v-4h2c2 0 3-1 3-3v0z" fill="#fff"/>
  <path d="M42 18h4v0c0 2 1 3 3 3h2v4h-2c-3 0-5-2-5-5v-2z" fill="#fff"/>
  <rect x="30" y="32" width="4" height="8" fill="#fff"/>
  <rect x="26" y="40" width="12" height="4" fill="#fff"/>
  <rect x="24" y="44" width="16" height="4" fill="#fff"/>
</svg>
